PathFileType	4	(X/Y/Z)	C:/Users/opensim2020/Desktop/walking_exp_matlab/subject06_walking18_straight_01.trc																																																																																																																																											
DataRate	CameraRate	NumFrames	NumMarkers	Units	OrigDataRate	OrigDataStartFrame	OrigNumFrames																																																																																																																																							
100	100	4	47	mm	100	1166	396																																																																																																																																							
Frame#	Time	LFHD			RFHD			LBHD			RBHD			C7			T10			CLAV			STRN			RBAK			LSHO			LUPA			LELB			LFRM			LWRA			LWRB			LFIN			RSHO			RUPA			RELB			RFRM			RWRA			RWRB			RFIN			LASI			RASI			LPSI			RPSI			LTHI			LKNE			LTIB			LANK			LHEE			LTOE			RTHI			RKNE			RTIB			RANK			RHEE			RTOE			*39			*40			*41			*42			*43			*44			*45			*46		
		X1	Y1	Z1	X2	Y2	Z2	X3	Y3	Z3	X4	Y4	Z4	X5	Y5	Z5	X6	Y6	Z6	X7	Y7	Z7	X8	Y8	Z8	X9	Y9	Z9	X10	Y10	Z10	X11	Y11	Z11	X12	Y12	Z12	X13	Y13	Z13	X14	Y14	Z14	X15	Y15	Z15	X16	Y16	Z16	X17	Y17	Z17	X18	Y18	Z18	X19	Y19	Z19	X20	Y20	Z20	X21	Y21	Z21	X22	Y22	Z22	X23	Y23	Z23	X24	Y24	Z24	X25	Y25	Z25	X26	Y26	Z26	X27	Y27	Z27	X28	Y28	Z28	X29	Y29	Z29	X30	Y30	Z30	X31	Y31	Z31	X32	Y32	Z32	X33	Y33	Z33	X34	Y34	Z34	X35	Y35	Z35	X36	Y36	Z36	X37	Y37	Z37	X38	Y38	Z38	X39	Y39	Z39	X40	Y40	Z40	X41	Y41	Z41	X42	Y42	Z42	X43	Y43	Z43	X44	Y44	Z44	X45	Y45	Z45	X46	Y46	Z46	X47	Y47	Z47
																																																																																																																																														
149	1.48	-20.66108	1676.64197	1400.68372	-14.36279	1660.14539	1531.50012	-152.74197	1619.93347	1404.11743	-145.37659	1608.72803	1533.24023	-149.09915	1461.08374	1456.21973	-182.58736	1132.13367	1460.05347	-40.0878	1384.07031	1445.71387	-2.88516	1208.03992	1428.50952	-216.80714	1287.66199	1535.52319	-107.52217	1422.34619	1290.32727	-100.57793	1220.69202	1216.67114	-91.16582	1107.83679	1207.17761	-36.39841	967.10516	1187.79553	49.57047	871.8656	1230.40381	-8.65082	850.98138	1195.92139	51.13121	782.4422	1196.36047	-72.48827	1410.99939	1609.76404	-96.47507	1208.85291	1693.07922	-82.22694	1087.2998	1699.5979	-65.83179	967.81049	1713.75232	-10.97663	827.6142	1679.52332	-63.71843	829.25006	1719.8302	-29.79524	751.44397	1719.07056	-17.36986	971.10413	1328.86157	11.42945	981.96967	1548.68848	-171.09563	995.30365	1376.71265	-143.46576	1005.48389	1542.84204	-55.67976	649.89948	1290.10498	-30.56731	489.63815	1312.76038	-203.47316	312.79056	1328.84583	-315.22266	182.9446	1370.21423	-351.38034	191.61375	1421.32397	-225.50143	72.41885	1356.41162	-31.59025	647.66211	1610.50842	-30.1342	521.73859	1587.6604	-70.07393	257.0741	1582.80664	-70.32334	70.54165	1529.88892	-109.98179	46.13621	1486.63452	87.46748	38.24263	1508.57727	-118.72746	1710.69409	1465.98901	NaN	NaN	NaN	NaN	NaN	NaN	NaN	NaN	NaN	NaN	NaN	NaN	NaN	NaN	NaN	NaN	NaN	NaN	NaN	NaN	NaN
150	1.49	-15.43318	1676.91174	1401.16968	-8.7291	1660.60278	1532.03149	-147.52437	1620.35583	1405.08533	-139.8356	1609.32886	1534.24744	-143.93669	1461.55005	1457.46936	-177.32683	1132.63281	1461.24756	-34.86249	1384.46606	1446.55872	2.33335	1208.44885	1429.31323	-211.31813	1288.07898	1536.88159	-102.874	1422.84949	1291.34814	-96.62222	1221.29822	1217.42664	-88.0236	1108.51599	1207.64917	-36.14676	966.89606	1187.14294	47.88176	869.12354	1228.61755	-11.17842	850.06787	1194.10461	47.01134	779.8736	1194.03406	-66.76772	1411.26196	1610.61035	-89.39432	1209.0509	1694.01575	-74.31973	1087.59741	1700.63464	-57.2902	968.21027	1714.62756	-1.23331	828.39532	1680.52686	-54.32747	829.60297	1720.56262	-19.99721	752.01727	1719.68774	-12.08331	971.69458	1329.9646	16.34364	982.01105	1549.70618	-165.86954	995.85345	1377.50574	-138.4566	1005.80139	1543.71814	-47.95488	650.89966	1290.63489	-21.26637	490.88623	1313.67627	-190.91115	310.86328	1329.12805	-299.73459	178.32159	1370.05054	-336.22894	185.67192	1421.16663	-206.46402	70.80918	1355.43921	-28.79235	647.59509	1610.96277	-28.65145	521.50568	1588.61487	-70.07842	257.14215	1583.18945	-70.76989	70.46332	1529.84229	-110.13533	45.99211	1486.67615	87.07291	38.35619	1508.91516	-113.26877	1711.14038	1466.77454	NaN	NaN	NaN	NaN	NaN	NaN	NaN	NaN	NaN	NaN	NaN	NaN	NaN	NaN	NaN	NaN	NaN	NaN	NaN	NaN	NaN
151	1.5	-10.27169	1677.14172	1401.64734	-3.16479	1661.0415	1532.50818	-142.39983	1620.62866	1406.05249	-134.27722	1609.78284	1535.14612	-138.56816	1461.82788	1458.5426	-172.13501	1132.91553	1462.38538	-29.62104	1384.81641	1447.33789	7.53213	1208.79199	1430.09363	-205.94519	1288.50513	1538.23315	-98.17773	1423.26196	1292.31226	-92.97482	1221.80176	1217.88831	-85.13842	1109.03601	1207.88391	-35.93742	966.5636	1186.35681	45.81631	866.43445	1226.92944	-13.50104	849.23523	1192.17993	42.63037	777.51648	1191.47913	-61.12846	1411.5094	1611.44922	-82.41442	1209.24707	1694.86975	-66.6797	1087.87659	1701.51184	-48.83014	968.60406	1715.45569	8.15051	829.27301	1681.40955	-44.99084	830.02209	1721.35437	-10.03539	752.62628	1720.41052	-6.72995	972.19342	1331.1051	21.03897	981.90063	1550.81775	-160.70354	996.40326	1378.22375	-133.60736	1006.02838	1544.53577	-40.12888	651.84027	1291.08093	-12.0807	492.13895	1314.52856	-178.2491	308.65018	1329.3031	-283.69598	173.14551	1369.7594	-320.34305	179.14526	1420.96143	-187.57159	68.88023	1354.69592	-26.66119	647.56781	1611.4906	-27.36656	521.43085	1589.22864	-70.02193	257.21072	1583.51868	-71.01585	70.48251	1529.95801	-110.40322	46.1595	1486.77869	86.96751	38.40257	1508.89429	-107.87513	1711.51343	1467.42773	NaN	NaN	NaN	NaN	NaN	NaN	NaN	NaN	NaN	NaN	NaN	NaN	NaN	NaN	NaN	NaN	NaN	NaN	NaN	NaN	NaN
152	1.51	-5.1302	1677.37537	1402.0354	2.30832	1661.46948	1532.94055	-137.2617	1620.84155	1406.96851	-128.79654	1610.23132	1536.09949	-133.26785	1462.10583	1459.55493	-167.01283	1133.22778	1463.46753	-24.41995	1385.08362	1448.11182	12.69227	1209.02234	1430.88611	-200.53458	1288.68115	1539.46655	-93.22461	1423.5603	1293.25671	-89.37842	1222.18335	1218.27832	-82.46435	1109.43787	1207.96729	-35.91014	966.24823	1185.44043	43.80079	864.04822	1225.38269	-16.0005	848.46802	1190.32825	38.33504	775.33997	1189.22461	-55.58165	1411.74426	1612.27319	-75.6488	1209.36865	1695.68115	-59.36164	1088.06421	1702.26831	-40.39348	968.94678	1716.25586	17.59206	830.1861	1682.17261	-35.638	830.33118	1721.9198	-0.0997	753.22235	1720.91003	-1.36493	972.66876	1332.27795	25.66667	981.74976	1551.9425	-155.58247	996.88293	1378.89319	-128.95947	1006.2218	1545.28833	-32.41288	652.72223	1291.39429	-3.1083	493.37222	1315.36145	-165.34048	306.14197	1329.41724	-267.15085	167.58231	1369.375	-303.9303	172.17247	1420.69543	-168.17105	66.55632	1353.15161	-24.20701	647.55554	1612.17664	-25.46096	521.25098	1589.79907	-69.80298	257.33859	1583.68018	-71.09559	70.45736	1529.95813	-110.36855	46.09414	1486.75366	86.86541	38.40027	1508.97852	-102.61187	1711.81348	1468.08447	NaN	NaN	NaN	NaN	NaN	NaN	NaN	NaN	NaN	NaN	NaN	NaN	NaN	NaN	NaN	NaN	NaN	NaN	NaN	NaN	NaN
